<svg width="35" height="28" fill="none" xmlns="http://www.w3.org/2000/svg">
<path d="M14.262 14.219c-1.569-1.253-3.39-1.914-5.271-1.914-4.232 0-7.815 3.431-8.914 8.53-.192.91-.021 1.854.471 2.592.479.718 1.197 1.128 1.962 1.128h29.865c-5.644 0-8.477-2.03-12.753-5.715l-5.36-4.621Zm12.836-.996-1.484-8.558a3.489 3.489 0 0 0-1.483-2.31 3.507 3.507 0 0 0-2.693-.53L10.987 4.048a3.5 3.5 0 0 0-2.757 3.05l-.377 3.566c.376-.048.745-.11 1.135-.11 2.29 0 4.484.794 6.42 2.346l5.36 4.614c3.882 3.35 6.294 5.29 11.604 5.29a2.626 2.626 0 0 0 2.625-2.624c.003-1.39-1.616-6.53-7.9-6.957Z" fill="#000"/>
</svg>
