<svg aria-hidden="true" style="position: absolute; width: 0; height: 0; overflow: hidden;" version="1.1" xmlns="http://www.w3.org/2000/svg" xmlns:xlink="http://www.w3.org/1999/xlink">
<defs>
<symbol id="icon-logo" viewBox="0 0 40 32">
<path d="M16.299 16.25c-1.793-1.432-3.874-2.187-6.024-2.187-4.837 0-8.931 3.921-10.187 9.749-0.219 1.040-0.024 2.119 0.538 2.962 0.547 0.821 1.368 1.289 2.242 1.289h34.131c-6.45 0-9.688-2.32-14.575-6.531l-6.126-5.281zM30.969 15.112l-1.696-9.781c-0.19-1.104-0.812-2.035-1.681-2.631l-0.014-0.009c-0.631-0.433-1.411-0.692-2.251-0.692-0.293 0-0.578 0.031-0.853 0.091l0.026-0.005-11.944 2.541c-1.684 0.365-2.959 1.753-3.149 3.468l-0.002 0.018-0.431 4.075c0.43-0.055 0.851-0.126 1.297-0.126 2.617 0 5.125 0.907 7.337 2.681l6.126 5.273c4.437 3.829 7.193 6.046 13.262 6.046 1.656-0.001 2.999-1.343 3-2.999v-0c0.003-1.589-1.847-7.463-9.029-7.951z"></path>
</symbol>
</defs>
</svg>
